<svg xmlns="http://www.w3.org/2000/svg" width="150" height="37" viewBox="0 0 150 37">
    <defs>
        <linearGradient id="a" x1="61.132%" x2="4.503%" y1="57.48%" y2="6.796%">
            <stop offset="0%" stop-color="#FFC425"/>
            <stop offset="32.033%" stop-color="#AA8E40"/>
            <stop offset="66.988%" stop-color="#6F6854"/>
            <stop offset="100%" stop-color="#58595B"/>
        </linearGradient>
        <linearGradient id="b" x1="52.312%" x2="3.637%" y1="79.676%" y2="-2.964%">
            <stop offset="0%" stop-color="#FFC425"/>
            <stop offset="34.303%" stop-color="#AA8E40"/>
            <stop offset="65.944%" stop-color="#6F6854"/>
            <stop offset="100%" stop-color="#58595B"/>
        </linearGradient>
        <linearGradient id="c" x1="46.477%" x2="3.86%" y1="37.408%" y2="-41.966%">
            <stop offset="0%" stop-color="#FFC425"/>
            <stop offset="31.604%" stop-color="#AA8E40"/>
            <stop offset="66.137%" stop-color="#6F6854"/>
            <stop offset="100%" stop-color="#58595B"/>
        </linearGradient>
        <linearGradient id="d" x1="41.336%" x2="4.135%" y1="0%" y2="-52.485%">
            <stop offset="0%" stop-color="#FFC425"/>
            <stop offset="33.335%" stop-color="#AA8E40"/>
            <stop offset="68.517%" stop-color="#6F6854"/>
            <stop offset="100%" stop-color="#58595B"/>
        </linearGradient>
        <linearGradient id="e" x1="34.338%" x2="2.389%" y1="12.7%" y2="-23.148%">
            <stop offset="0%" stop-color="#FFC425"/>
            <stop offset="33.71%" stop-color="#AA8E40"/>
            <stop offset="65.026%" stop-color="#6F6854"/>
            <stop offset="100%" stop-color="#58595B"/>
        </linearGradient>
    </defs>
    <g fill="none" fill-rule="nonzero">
        <path fill="#FFF" d="M56.621 10.212H42.598v3.284h5.131V27.99h3.762V13.496h5.13z"/>
        <path fill="#FFF" d="M59.519 23.93h-.047l-2.804-8.81h-3.617l4.337 12.075c.096.254.145.524.145.796 0 .373-.114.737-.327 1.045-.226.328-.591.535-.991.564a7.36 7.36 0 0 1-1.01-.028l-1-.11v2.913l1.043.088c.34 0 .691.037 1.042.037a4.796 4.796 0 0 0 2.733-.675 4.361 4.361 0 0 0 1.552-2.225l5.177-14.467H62.23l-2.71 8.797zM84.182 15.813a3.637 3.637 0 0 0-1.439-.796 6.379 6.379 0 0 0-1.822-.25 3.86 3.86 0 0 0-2.239.648c-.597.392-1.107.9-1.5 1.494a3.119 3.119 0 0 0-1.481-1.646 4.855 4.855 0 0 0-2.145-.463 4.24 4.24 0 0 0-2.168.55 4.917 4.917 0 0 0-1.622 1.54h-.046v-1.77h-3.21v12.87h3.401v-7.469c-.019-.522.07-1.043.262-1.53a2.47 2.47 0 0 1 .635-.898c.223-.193.484-.338.767-.425.206-.065.42-.102.635-.111.431-.028.86.072 1.234.286.276.185.487.45.603.759.122.332.19.682.2 1.036 0 .374.024.749.024 1.133v7.22h3.407v-7.178c0-.395.027-.79.084-1.18.046-.365.158-.72.331-1.045.164-.304.404-.562.697-.75a2.12 2.12 0 0 1 1.163-.286c.395-.02.787.066 1.136.25.281.163.506.406.645.698.153.313.243.652.266.999.033.38.047.786.047 1.221v7.27h3.402v-8.616a6.098 6.098 0 0 0-.332-2.127 3.696 3.696 0 0 0-.935-1.434zM97.589 17.113a5.589 5.589 0 0 0-1.93-1.707 5.745 5.745 0 0 0-2.757-.634 6.242 6.242 0 0 0-2.575.523 6.073 6.073 0 0 0-2 1.434 6.337 6.337 0 0 0-1.294 2.15 7.79 7.79 0 0 0-.468 2.692c-.01.931.14 1.857.444 2.738.272.79.701 1.518 1.262 2.141a5.43 5.43 0 0 0 1.986 1.388 6.852 6.852 0 0 0 2.636.462 6.31 6.31 0 0 0 3.593-.994c.994-.666 1.729-1.77 2.206-3.312h-2.996a2.21 2.21 0 0 1-.911 1.134 3.388 3.388 0 0 1-3.977-.24c-.51-.516-.79-1.345-.836-2.49h8.94a9.506 9.506 0 0 0-.244-2.862 7.132 7.132 0 0 0-1.08-2.424zm-7.608 3.061c.022-.286.073-.57.155-.846a2.65 2.65 0 0 1 .467-.893c.233-.296.528-.539.864-.712a2.89 2.89 0 0 1 1.355-.287 2.35 2.35 0 0 1 1.87.699c.461.592.755 1.297.85 2.04h-5.56zM110.229 18.602v-.051c.436-.093.849-.27 1.215-.523a3.91 3.91 0 0 0 .935-.925c.268-.363.475-.768.612-1.198.144-.437.216-.895.215-1.355a4.32 4.32 0 0 0-.468-2.081 3.746 3.746 0 0 0-1.21-1.341 4.958 4.958 0 0 0-1.715-.708c-.682-.14-1.378-.21-2.075-.208h-7.27V27.99h7.238a9.637 9.637 0 0 0 2.383-.26 6.468 6.468 0 0 0 1.677-.675c.425-.245.796-.57 1.094-.957.256-.34.465-.714.621-1.11.14-.353.236-.721.29-1.096.044-.318.067-.637.07-.958a4.42 4.42 0 0 0-.981-2.923 4.012 4.012 0 0 0-2.631-1.41zm-8.122-6.938h5.608c2.57 0 3.857 1.112 3.86 3.335a2.92 2.92 0 0 1-.243 1.175 2.639 2.639 0 0 1-.715.939 3.53 3.53 0 0 1-1.201.647 5.487 5.487 0 0 1-1.701.236h-5.608v-6.332zm9.753 13.01c-.222.456-.56.847-.981 1.134-.435.29-.925.49-1.44.587a8.94 8.94 0 0 1-1.724.162h-5.608v-7.109h5.608c1.453 0 2.57.287 3.341.86a2.998 2.998 0 0 1 1.164 2.576c.023.614-.1 1.224-.36 1.781v.01zM124.636 25.724v-6.822a4.63 4.63 0 0 0-.412-2.104c-.238-.5-.6-.933-1.051-1.258a3.834 3.834 0 0 0-1.463-.61 8.495 8.495 0 0 0-1.63-.162 7.205 7.205 0 0 0-1.963.25c-.564.15-1.09.413-1.547.772-.45.36-.808.821-1.042 1.346a5.407 5.407 0 0 0-.467 1.942h1.51c.033-1.051.354-1.811.962-2.28a3.676 3.676 0 0 1 2.336-.708c.422-.002.843.035 1.257.111.37.063.722.204 1.033.412.316.198.57.478.738.81.183.41.27.856.253 1.304.01.288-.037.575-.136.846-.076.2-.203.377-.37.513-.176.131-.38.22-.597.26a8.205 8.205 0 0 1-.841.124c-.813.102-1.617.204-2.407.31a8.414 8.414 0 0 0-2.135.564 3.584 3.584 0 0 0-1.52 1.157 3.41 3.41 0 0 0-.579 2.104 4.02 4.02 0 0 0 .328 1.679c.197.454.502.855.887 1.17.387.315.836.545 1.318.675.527.142 1.07.212 1.617.208a6.234 6.234 0 0 0 1.57-.17c.415-.107.81-.275 1.173-.5.35-.224.664-.496.935-.81.3-.35.576-.72.827-1.105h.046c-.003.31.017.619.061.925.03.253.117.496.252.712.13.203.317.364.538.463.296.12.615.175.934.162.172 0 .344-.007.514-.023.136 0 .29-.042.468-.08v-1.34a1.094 1.094 0 0 1-.468.101c-.635 0-.93-.31-.93-.948zm-1.51-2.715a3.92 3.92 0 0 1-.35 1.693 3.84 3.84 0 0 1-.935 1.272c-.401.354-.87.624-1.378.796-.532.185-1.091.279-1.655.277-.35 0-.697-.06-1.028-.176a2.604 2.604 0 0 1-.887-.513 2.51 2.51 0 0 1-.613-.796 2.389 2.389 0 0 1-.224-1.059 1.913 1.913 0 0 1 .537-1.457c.402-.362.881-.63 1.402-.781a10.329 10.329 0 0 1 1.87-.412 44.35 44.35 0 0 0 1.976-.31c.243-.043.484-.102.72-.175a.869.869 0 0 0 .551-.398h.052l-.038 2.04zM136.234 16.1a3.42 3.42 0 0 0-1.402-.98 5.806 5.806 0 0 0-2.168-.352 4.388 4.388 0 0 0-2.421.707 3.708 3.708 0 0 0-1.533 1.883h-.051v-2.216h-1.51v12.849h1.51v-7.493a6.02 6.02 0 0 1 .299-1.758c.168-.505.43-.975.771-1.387.327-.39.735-.706 1.196-.925a3.771 3.771 0 0 1 1.617-.333 3.46 3.46 0 0 1 1.523.296c.394.183.733.465.982.819.249.372.42.79.5 1.23.1.504.148 1.017.145 1.53v8.02h1.509v-8.264a9.017 9.017 0 0 0-.215-2.068 3.767 3.767 0 0 0-.752-1.558zM144.047 19.897l5.27-4.755h-2.009l-6.855 6.226V10.211h-1.51v17.779h1.51v-4.88l2.444-2.118 4.888 6.998h1.893z"/>
        <path fill="url(#a)" d="M24.687 0L0 5.037v4.056l22.593-3.871 13 4.782V7.025z"/>
        <path fill="url(#b)" d="M0 10.614v4.218l19.467-1.618 16.126 1.748V11.23l-13.79-3.913z"/>
        <path fill="url(#c)" d="M0 16.22v4.32l15.818 1.096 19.775-.967v-4.407l-17.032-1.074z"/>
        <path fill="url(#d)" d="M0 25.424l12.673 4.047 22.92-3.196v-4.27L14.93 23.575 0 21.839z"/>
        <path fill="url(#e)" d="M0 29.521l9.771 7.188 25.822-4.764v-4.107l-23.766 3.728L0 26.719z"/>
    </g>
</svg>
